<svg width="329" height="72" viewBox="0 0 329 72" fill="none" xmlns="http://www.w3.org/2000/svg">
<g clip-path="url(#clip0_17_47)">
<path d="M246.854 50.6049C243.454 49.3637 240.381 47.5319 237.571 44.985L243.846 37.4688C246.264 39.4297 248.488 40.8693 250.578 41.8475C252.668 42.761 254.956 43.287 257.443 43.287C259.34 43.287 260.775 42.8949 261.822 42.2397C262.869 41.5199 263.391 40.5417 263.391 39.2313V39.1021C263.391 38.3824 263.262 37.861 263.063 37.335C262.8 36.8782 262.408 36.4214 261.822 36.0292C261.167 35.637 260.318 35.2448 259.141 34.8526C258.029 34.3958 256.525 34.0037 254.629 33.4823C252.34 32.9609 250.25 32.3057 248.354 31.5859C246.457 30.9307 244.824 30.0172 243.518 28.9698C242.213 27.9224 241.165 26.6812 240.445 25.1771C239.726 23.6083 239.398 21.7765 239.398 19.5572V19.428C239.398 17.4025 239.79 15.5061 240.51 13.8727C241.294 12.1748 242.406 10.7352 243.846 9.49404C245.285 8.25287 247.048 7.33468 249.074 6.61951C251.034 5.96432 253.258 5.64134 255.676 5.64134C259.077 5.64134 262.214 6.16273 265.024 7.14551C267.899 8.19289 270.515 9.62785 272.933 11.5888L267.442 19.4972C265.089 17.9284 262.929 16.6873 261.102 15.9675C259.206 15.1831 257.374 14.7909 255.547 14.7909C253.72 14.7909 252.474 15.1185 251.625 15.8383C250.711 16.4935 250.25 17.4071 250.25 18.519V18.6482C250.25 19.4326 250.379 20.0186 250.707 20.5446C250.97 21.066 251.427 21.5228 252.082 21.9196C252.737 22.3118 253.715 22.7039 254.956 23.0961C256.198 23.4883 257.766 23.8805 259.663 24.4019C262.016 25.0571 264.041 25.7077 265.873 26.4921C267.705 27.2764 269.274 28.19 270.515 29.2374C271.821 30.3494 272.739 31.5905 273.389 33.0301C273.975 34.4697 274.303 36.1676 274.303 38.1286V38.2578C274.303 40.4817 273.911 42.4427 273.062 44.2052C272.277 45.9724 271.101 47.4074 269.597 48.6485C268.092 49.8897 266.261 50.8033 264.171 51.4585C262.08 52.1136 259.727 52.4366 257.24 52.4366C253.711 52.4366 250.245 51.7814 246.845 50.6049H246.854Z" fill="#124F71"/>
<path d="M328.633 6.3519V15.6999H293.073V6.3519H328.633ZM328.633 43.0886V52.4366H293.073V24.7203H315.298V34.0683H303.076V43.0886H328.637H328.633Z" fill="#124F71"/>
<g opacity="0.4">
<path d="M87.6569 71.6263H81.834V60.7741H87.6569C90.8728 60.7741 93.5074 63.2103 93.5074 66.2002C93.5074 69.1901 90.8728 71.6263 87.6569 71.6263ZM83.8734 69.7715H87.6569C89.7562 69.7715 91.4819 68.1658 91.4819 66.2002C91.4819 64.2347 89.7562 62.629 87.6569 62.629H83.8734V69.7715Z" fill="#124F71"/>
<path d="M110.242 71.6263H99.3118V60.7741H110.242V62.6151H101.351V65.3005H107.354V67.0999H101.351V69.7853H110.242V71.6263Z" fill="#124F71"/>
<path d="M116.121 69.6053L117.805 68.6502C118.326 69.4116 120.112 69.9929 121.764 69.9929C122.894 69.9929 123.895 69.8407 124.55 69.55C125.681 69.0378 125.639 67.9581 124.564 67.529C123.895 67.266 123.166 67.2245 121.897 67.0723C120.481 66.9615 119.203 66.8092 118.368 66.4909C116.817 65.9095 116.43 64.8437 116.462 63.9578C116.462 62.6566 117.223 61.7708 118.428 61.2171C119.383 60.8018 120.661 60.5803 122.119 60.5803C124.652 60.5803 126.318 61.314 127.019 62.7397L125.233 63.6117C124.818 62.7812 123.761 62.366 122.017 62.366C120.541 62.366 118.52 62.6982 118.474 63.764C118.446 64.7329 119.323 64.9683 120.707 65.1759C121.048 65.2174 121.468 65.2589 121.93 65.3005C122.243 65.3282 122.585 65.3697 122.94 65.4112C123.863 65.5081 124.74 65.6327 125.455 65.8957C127.019 66.477 127.406 67.529 127.36 68.4565C127.346 68.5118 127.346 68.5672 127.346 68.6226C127.259 70.9203 124.592 71.8201 121.704 71.8201C119.558 71.8201 116.937 71.0449 116.121 69.6053Z" fill="#124F71"/>
<path d="M135.578 71.6263H133.539V60.7741H135.578V71.6263Z" fill="#124F71"/>
<path d="M147.98 60.7603C150.108 60.7603 152.239 61.6739 153.402 63.2795L151.736 64.3315C150.92 63.238 149.471 62.6151 147.985 62.6151C145.544 62.6151 143.579 64.2208 143.579 66.2002C143.579 68.1796 145.544 69.7853 147.985 69.7853C149.383 69.7853 150.753 69.2316 151.616 68.2211V67.5014H147.464V65.7434H153.614V68.8579C152.258 70.7127 150.264 71.6401 147.985 71.6401C144.469 71.6401 141.539 69.2731 141.539 66.2002C141.539 63.1273 144.534 60.7603 147.985 60.7603H147.98Z" fill="#124F71"/>
<path d="M159.562 71.6263V60.4696L169.209 68.0412V60.7741H171.235V72L161.601 64.4284V71.6263H159.562Z" fill="#124F71"/>
<path d="M187.832 69.6053L189.516 68.6502C190.037 69.4116 191.823 69.9929 193.474 69.9929C194.605 69.9929 195.606 69.8407 196.261 69.55C197.392 69.0378 197.35 67.9581 196.275 67.529C195.606 67.266 194.877 67.2245 193.608 67.0723C192.192 66.9615 190.914 66.8092 190.079 66.4909C188.528 65.9095 188.141 64.8437 188.173 63.9578C188.173 62.6566 188.934 61.7708 190.139 61.2171C191.094 60.8018 192.372 60.5803 193.83 60.5803C196.363 60.5803 198.029 61.314 198.73 62.7397L196.944 63.6117C196.529 62.7812 195.472 62.366 193.728 62.366C192.252 62.366 190.231 62.6982 190.185 63.764C190.157 64.7329 191.034 64.9683 192.418 65.1759C192.759 65.2174 193.179 65.2589 193.641 65.3005C193.954 65.3282 194.296 65.3697 194.651 65.4112C195.574 65.5081 196.451 65.6327 197.166 65.8957C198.73 66.477 199.117 67.529 199.071 68.4565C199.057 68.5118 199.057 68.5672 199.057 68.6226C198.97 70.9203 196.303 71.8201 193.414 71.8201C191.269 71.8201 188.648 71.0449 187.832 69.6053Z" fill="#124F71"/>
<path d="M204.354 66.2002C204.354 63.0996 207.317 60.7603 210.8 60.7603C214.284 60.7603 217.232 63.1411 217.232 66.2002C217.232 69.2593 214.27 71.6401 210.8 71.6401C207.331 71.6401 204.354 69.2731 204.354 66.2002ZM215.211 66.2002C215.211 64.2208 213.232 62.6151 210.805 62.6151C208.378 62.6151 206.398 64.2208 206.398 66.2002C206.398 68.1796 208.364 69.7853 210.805 69.7853C213.246 69.7853 215.211 68.1796 215.211 66.2002Z" fill="#124F71"/>
<path d="M223.189 60.7741H225.228V69.7715H233.03V71.6263H223.189V60.7741Z" fill="#124F71"/>
<path d="M238.092 66.2417V60.7741H240.131V66.2417C240.131 68.2073 241.829 69.7991 243.929 69.7991C246.028 69.7991 247.726 68.2073 247.726 66.2417V60.7741H249.752V66.2417C249.752 69.2316 247.131 71.6678 243.929 71.6678C240.727 71.6678 238.092 69.2316 238.092 66.2417Z" fill="#124F71"/>
<path d="M260.216 62.629H255.408V60.7741H267.068V62.629H262.26V71.6263H260.221V62.629H260.216Z" fill="#124F71"/>
<path d="M274.76 71.6263H272.72V60.7741H274.76V71.6263Z" fill="#124F71"/>
<path d="M280.712 66.2002C280.712 63.0996 283.674 60.7603 287.157 60.7603C290.641 60.7603 293.589 63.1411 293.589 66.2002C293.589 69.2593 290.627 71.6401 287.157 71.6401C283.688 71.6401 280.712 69.2731 280.712 66.2002ZM291.568 66.2002C291.568 64.2208 289.589 62.6151 287.162 62.6151C284.735 62.6151 282.756 64.2208 282.756 66.2002C282.756 68.1796 284.721 69.7853 287.162 69.7853C289.603 69.7853 291.568 68.1796 291.568 66.2002Z" fill="#124F71"/>
<path d="M299.546 71.6263V60.4696L309.194 68.0412V60.7741H311.219V72L301.585 64.4284V71.6263H299.546Z" fill="#124F71"/>
<path d="M317.398 69.6053L319.082 68.6502C319.603 69.4116 321.389 69.9929 323.041 69.9929C324.171 69.9929 325.172 69.8407 325.827 69.55C326.958 69.0378 326.916 67.9581 325.841 67.529C325.172 67.266 324.443 67.2245 323.174 67.0723C321.758 66.9615 320.48 66.8092 319.645 66.4909C318.094 65.9095 317.707 64.8437 317.739 63.9578C317.739 62.6566 318.5 61.7708 319.705 61.2171C320.66 60.8018 321.938 60.5803 323.396 60.5803C325.929 60.5803 327.595 61.314 328.296 62.7397L326.51 63.6117C326.095 62.7812 325.038 62.366 323.294 62.366C321.818 62.366 319.797 62.6982 319.751 63.764C319.723 64.7329 320.6 64.9683 321.984 65.1759C322.325 65.2174 322.745 65.2589 323.207 65.3005C323.52 65.3282 323.862 65.3697 324.217 65.4112C325.14 65.5081 326.017 65.6327 326.732 65.8957C328.296 66.477 328.683 67.529 328.637 68.4565C328.623 68.5118 328.623 68.5672 328.623 68.6226C328.536 70.9203 325.869 71.8201 322.981 71.8201C320.835 71.8201 318.214 71.0449 317.398 69.6053Z" fill="#124F71"/>
</g>
<path d="M217.758 47.8872C211.206 45.594 203.782 42.9917 199.297 35.4201C195.675 29.3066 194.07 22.344 194.656 15.2846L200.174 15.7414C199.685 21.6473 201.028 27.4748 204.064 32.5964C207.524 38.4331 213.384 40.4863 219.594 42.6595L217.763 47.8872H217.758Z" fill="#124F71"/>
<path d="M215.58 37.9409L211.337 48.3539L221.75 52.597L225.993 42.184L215.58 37.9409Z" fill="#124F71"/>
<path d="M190.549 20.037H204.234V6.3519L190.549 6.3519V20.037Z" fill="#124F71"/>
<path d="M163.488 6.3519H153.356L133.677 52.6996H158.846V52.6535L155.118 43.4808H148.714L158.325 19.8802L171.66 52.6996H183.227L163.488 6.3519Z" fill="#124F71"/>
<path d="M111.451 35.9646C111.742 35.8723 112.019 35.7662 112.296 35.6601H121.219V20.7384C121.219 12.793 114.778 6.35187 106.833 6.35187H105.393C104.747 6.31035 104.092 6.28728 103.414 6.28728H81.9724V52.4366H93.0829V15.7645H102.56C105.868 15.806 108.042 16.7841 109.126 18.6851L109.818 20.683C109.883 21.0521 109.915 21.4443 109.929 21.8549V22.404C109.675 26.4736 107.266 28.513 102.754 28.513H93.6689L109.947 52.4366H122.696L111.451 35.9646Z" fill="#124F71"/>
<path d="M34.8957 6.21348C34.8772 10.9844 34.8588 15.7091 34.8357 20.5769C35.2833 20.5769 35.6985 20.5769 36.1 20.5815C42.0613 20.6046 42.5642 20.6092 48.5901 20.6323C48.5716 24.891 48.5578 29.0851 48.5393 33.3208C48.5393 33.5469 48.5393 33.773 48.5393 33.999C48.5393 34.2574 48.5393 34.5158 48.5393 34.7742C48.5347 36.3891 48.5255 37.921 48.5209 39.2544C48.5209 39.2544 48.5209 39.2544 48.5209 39.259C38.7992 29.4589 27.0104 17.5732 18.6129 9.07878C18.4929 8.95421 18.3683 8.8527 18.2484 8.76042C15.743 6.23194 13.3667 3.82804 11.2166 1.65484C10.9398 1.378 10.6675 1.17499 10.3676 1.03195C10.2108 0.92583 10.0447 0.852006 9.89239 0.847392C9.87855 0.847392 9.86932 0.847392 9.85548 0.847392C9.84164 0.847392 9.83241 0.847392 9.81857 0.847392C9.78165 0.838164 9.74474 0.838164 9.70783 0.828936C9.55557 0.801252 9.39408 0.78741 9.22336 0.782796C9.18183 0.782796 9.14492 0.778182 9.09878 0.778182C8.45282 0.78741 7.80686 0.792024 7.1609 0.792024C5.86436 0.792024 4.56782 0.782796 3.27129 0.773568C2.62533 0.768954 1.98398 0.76434 1.33802 0.759726C0.973511 0.759726 0.613618 0.759726 0.0737793 0.755112C0.0737793 0.759726 0.0737793 0.768954 0.0737793 0.773568C0.0737793 0.773568 0.0691653 0.773568 0.0645513 0.773568C0.0645513 0.773568 0.0599372 0.773568 0.0553232 0.773568C0.0553232 1.31341 0.0553232 1.67791 0.0507092 2.03781C0.0414812 4.62627 0.0599372 7.21011 -4.48666e-05 9.79857C-0.00465888 10.0523 0.0137972 10.2784 0.0599372 10.4953C0.0599372 10.4999 0.0599372 10.5045 0.0599372 10.5137C0.0599372 10.5368 0.0599372 10.5599 0.0599372 10.583C0.0599372 10.7352 0.138375 10.9013 0.239884 11.0582C0.378304 11.3535 0.58132 11.6349 0.853547 11.9118C11.3043 22.4087 26.9319 38.1747 37.3596 48.6901C37.4196 48.75 37.4749 48.81 37.5349 48.87C37.5534 48.8931 37.5764 48.9161 37.5995 48.9346L38.1763 49.516C36.3814 49.5067 34.342 49.5021 32.2611 49.4929C32.0858 49.4929 31.9151 49.4929 31.7397 49.4929C29.3358 49.4837 26.9042 49.4744 24.7587 49.4652C24.1497 49.4652 23.5406 49.4606 22.9316 49.456C22.3318 49.456 21.7689 49.4514 21.2521 49.4514C21.1044 49.4514 20.9522 49.4514 20.8045 49.4514C20.3293 49.4514 19.8956 49.4514 19.5172 49.4467C19.5403 43.4209 19.5449 42.9179 19.568 36.9566C19.568 36.5552 19.568 36.1399 19.5726 35.6924C14.7002 35.6739 9.98006 35.6555 5.20917 35.6324C5.16303 46.4707 5.13996 53.078 5.09382 63.8701C5.69364 63.8701 6.31653 63.8748 6.94404 63.8794C7.50695 63.8794 8.06986 63.8794 8.63276 63.884C9.20029 63.884 9.77243 63.8886 10.3584 63.8932C10.8936 63.8932 11.4335 63.8932 11.9687 63.8978C12.1625 63.8978 12.3563 63.8978 12.5501 63.8978C16.6796 63.9163 20.8091 63.9301 24.9341 63.9486C25.4554 63.9486 25.9814 63.9486 26.5028 63.9532C28.3484 63.9624 30.1986 63.967 32.0442 63.9763C32.764 63.9763 33.4792 63.9809 34.199 63.9855C34.5866 63.9855 34.9741 63.9855 35.3571 63.9901C35.9154 63.9901 36.4691 63.9901 37.0228 63.9947C39.3897 50.9417 49.9512 40.3941 62.9904 38.0363C62.9904 37.012 62.9996 35.9831 63.0042 34.9495C63.0042 34.7696 63.0042 34.5943 63.0042 34.4143C63.0181 31.4152 63.0273 28.393 63.0412 25.4124C63.0412 25.0156 63.0412 24.6188 63.0458 24.222C63.0504 22.7916 63.0596 21.3705 63.0642 19.9725C63.0642 19.2942 63.0688 18.6113 63.0735 17.9331C63.0827 16.069 63.0873 14.2557 63.0965 12.5024C63.1011 11.1182 63.1058 9.73859 63.115 8.35438C63.115 7.65767 63.1196 6.9748 63.1242 6.31038C52.332 6.26424 45.7248 6.24117 34.8865 6.19503L34.8957 6.21348Z" fill="#124F71"/>
<path d="M55.0867 45.8893C54.9759 45.7786 54.8606 45.6632 54.7499 45.5479C52.692 46.7198 50.7726 48.164 49.0423 49.8758C49.0146 49.9035 48.987 49.9312 48.9639 49.9543C47.1829 51.7353 45.6926 53.7193 44.4929 55.8556C44.5806 55.9479 44.6729 56.0401 44.7605 56.1278C44.8205 56.1878 44.8759 56.2478 44.9359 56.3078C44.9543 56.3308 44.9774 56.3539 45.0005 56.3723L60.0098 71.5017C60.319 71.5017 70.3406 61.5354 70.3406 61.2171L55.9126 46.6691C55.9126 46.6691 55.9126 46.6783 55.9126 46.6829C55.5758 46.3553 55.3266 46.1246 55.0913 45.8847L55.0867 45.8893Z" fill="#124F71"/>
</g>
<defs>
<clipPath id="clip0_17_47">
<rect width="328.642" height="71.2357" fill="white" transform="translate(0 0.764313)"/>
</clipPath>
</defs>
</svg>
